<?xml version="1.0" encoding="UTF-8"?>
<svg version="1.1" xmlns="http://www.w3.org/2000/svg" width="676" height="166">
<path d="M0 0 C0.33 7.26 0.66 14.52 1 22 C1.721875 20.453125 2.44375 18.90625 3.1875 17.3125 C5.31719007 13.08286414 7.32855256 10.07376995 11 7 C11.87978516 6.26330078 11.87978516 6.26330078 12.77734375 5.51171875 C24.08469849 -3.51177424 35.89994811 -5.03483605 50 -4 C53.80025342 -3.29927454 57.36653769 -2.30345395 61 -1 C61.99 -0.67 62.98 -0.34 64 0 C64 1.65 64 3.3 64 5 C64.70125 5.061875 65.4025 5.12375 66.125 5.1875 C71.4980664 6.70597529 74.82718789 10.59748853 78 15 C77.85833643 13.08302063 77.71150416 11.16642277 77.5625 9.25 C77.48128906 8.18265625 77.40007812 7.1153125 77.31640625 6.015625 C77.05086124 2.8068415 77.05086124 2.8068415 76 -1 C86.23 -1 96.46 -1 107 -1 C110.17754148 11.71016592 113.23256746 24.32332294 115.375 37.25 C115.54225586 38.25417969 115.70951172 39.25835937 115.88183594 40.29296875 C116.56679779 44.58834246 117.08237232 48.64105076 117 53 C117.66 53 118.32 53 119 53 C119.03230713 52.44376953 119.06461426 51.88753906 119.09790039 51.31445312 C119.77208489 42.19406416 121.37348656 33.24215536 122.95629883 24.24511719 C123.44101881 21.47992618 123.91318409 18.71277082 124.38476562 15.9453125 C124.69195342 14.18215997 124.99986956 12.41913416 125.30859375 10.65625 C125.51807899 9.41881042 125.51807899 9.41881042 125.73179626 8.15637207 C126.37965813 4.53210478 126.93222907 2.1016564 129 -1 C131.51411017 -1.42457832 133.7822089 -1.65405784 136.3125 -1.75 C137.02148438 -1.78601318 137.73046875 -1.82202637 138.4609375 -1.85913086 C145.01844575 -2.12967207 151.47884843 -1.7258131 158 -1 C158.17953537 5.31412098 157.53492165 11.20128546 156.4765625 17.421875 C156.30299225 18.4496405 156.129422 19.47740601 155.95059204 20.53631592 C153.49489583 34.5061843 150.16919154 48.28899771 146.88848877 62.08276367 C146.19396026 65.01409832 145.50913854 67.94766753 144.82428551 70.88127518 C144.15899437 73.72689527 143.4886854 76.57131392 142.8167305 79.41536713 C142.4988543 80.76263037 142.18230047 82.11020637 141.86713791 83.45810699 C141.429909 85.32383006 140.98538197 87.18783828 140.54052734 89.05175781 C140.29056 90.10743958 140.04059265 91.16312134 139.78305054 92.25079346 C139 95 139 95 137 99 C124.46 99 111.92 99 99 99 C93.77541943 81.3781096 89.24627496 64.09320894 86 46 C85.87044922 47.77890625 85.87044922 47.77890625 85.73828125 49.59375 C84.41585854 65.58576126 82.01826958 81.90505868 69.625 93.3125 C61.13708749 100.10283001 53.16655301 101.24546687 42.5625 101.375 C41.43650391 101.41238281 40.31050781 101.44976562 39.15039062 101.48828125 C28.6367344 101.59710575 19.57590877 98.74151965 11.3125 92.0625 C10.50425781 91.43472656 9.69601562 90.80695313 8.86328125 90.16015625 C6.51378201 87.43631332 6.20360311 85.55595195 6 82 C6.33 81.01 6.66 80.02 7 79 C9.46800047 80.15173355 11.04783565 81.04783565 13 83 C13.48198463 81.75108386 13.96045677 80.50081192 14.4375 79.25 C14.70433594 78.55390625 14.97117187 77.8578125 15.24609375 77.140625 C15.96146693 75.10940997 16.51365652 73.0964709 17 71 C18.98 71 20.96 71 23 71 C22.67 69.35 22.34 67.7 22 66 C20.80375 66.495 19.6075 66.99 18.375 67.5 C12.02183777 69.66515769 5.62950338 69.2546182 -1 69 C-2.89222242 55.62933745 -4.01373777 42.31711475 -1 29 C-6.38543512 27.78487475 -11.50350754 27.74013718 -17 28 C-17.71414063 28.03222656 -18.42828125 28.06445312 -19.1640625 28.09765625 C-21.29015325 28.31254597 -21.29015325 28.31254597 -24 30 C-27.1895843 36.66950895 -27.46603625 43.80488752 -27.375 51.0625 C-27.38660156 51.99126953 -27.39820313 52.92003906 -27.41015625 53.87695312 C-27.38396428 60.0975452 -26.33904568 65.23763575 -24 71 C-22.96359375 71.06058594 -21.9271875 71.12117188 -20.859375 71.18359375 C-19.48957127 71.26803371 -18.11978025 71.35267997 -16.75 71.4375 C-16.06808594 71.47681641 -15.38617188 71.51613281 -14.68359375 71.55664062 C-7.00469862 72.04123109 -7.00469862 72.04123109 -5 73 C-4.0234375 75.21484375 -4.0234375 75.21484375 -3.375 77.9375 C-2.47941667 81.89200428 -2.47941667 81.89200428 0 85 C0.69492465 90.10974006 0.31888046 95.36223908 -2 100 C-7.41404498 102.05115318 -13.9347251 101.26872865 -19.625 101.3125 C-21.47544922 101.35600586 -21.47544922 101.35600586 -23.36328125 101.40039062 C-34.02298726 101.47402303 -42.30964101 99.50334014 -50.18359375 92.04296875 C-58.68735671 82.47852137 -61.23500853 71.31855834 -62.1875 58.875 C-62.26935547 57.91851562 -62.35121094 56.96203125 -62.43554688 55.9765625 C-62.63316405 53.65165452 -62.82116848 51.32641508 -63 49 C-63.62261719 49.9590625 -64.24523437 50.918125 -64.88671875 51.90625 C-67 55 -67 55 -68.8125 56.5 C-70.31430664 58.04004915 -70.31430664 58.04004915 -69.73071289 60.72143555 C-68.98570286 64.06414843 -67.91371063 66.84378915 -66.49609375 69.95703125 C-66.00302734 71.07013672 -65.50996094 72.18324219 -65.00195312 73.33007812 C-63.96270325 75.64341462 -62.91587142 77.95336053 -61.86132812 80.25976562 C-61.36955078 81.37673828 -60.87777344 82.49371094 -60.37109375 83.64453125 C-59.91661865 84.64846924 -59.46214355 85.65240723 -58.99389648 86.68676758 C-58 90 -58 90 -58 99 C-68.23 99 -78.46 99 -89 99 C-95.88370188 83.85585586 -95.88370188 83.85585586 -93.28125 75.765625 C-92 74 -92 74 -89.72265625 73.35546875 C-88.84480469 73.30003906 -87.96695313 73.24460937 -87.0625 73.1875 C-86.18722656 73.11917969 -85.31195313 73.05085938 -84.41015625 72.98046875 C-82 73 -82 73 -79 74 C-79.66 71.36 -80.32 68.72 -81 66 C-82.11375 66.165 -83.2275 66.33 -84.375 66.5 C-100.90628033 68.26299589 -117.51071425 66.2684066 -134 65 C-134 43.22 -134 21.44 -134 -1 C-124.99247413 -2.12594073 -124.99247413 -2.12594073 -121.1796875 -2.16113281 C-119.89795654 -2.17554413 -119.89795654 -2.17554413 -118.59033203 -2.19024658 C-117.69427246 -2.19449646 -116.79821289 -2.19874634 -115.875 -2.203125 C-114.92866699 -2.20882507 -113.98233398 -2.21452515 -113.00732422 -2.22039795 C-111.0172638 -2.22979354 -109.0271882 -2.23636011 -107.03710938 -2.24023438 C-104.00883845 -2.24997158 -100.98123805 -2.2810595 -97.953125 -2.3125 C-96.01042065 -2.31902855 -94.06771151 -2.3242796 -92.125 -2.328125 C-91.22894043 -2.3404718 -90.33288086 -2.3528186 -89.40966797 -2.36553955 C-82.05036481 -2.33969248 -75.27317721 -0.95084737 -69.58203125 4.14453125 C-65.19791705 9.28639358 -60.13604872 16.26603003 -59 23 C-58.34 23 -57.68 23 -57 23 C-56.896875 22.27425781 -56.79375 21.54851562 -56.6875 20.80078125 C-54.58113099 12.21972112 -46.89432861 5.08517855 -40 0 C-27.29492614 -7.31812254 -13.13639914 -3.92864273 0 0 Z M-89.8515625 16.390625 C-90.43679687 17.00421875 -91.02203125 17.6178125 -91.625 18.25 C-92.21539062 18.85328125 -92.80578125 19.4565625 -93.4140625 20.078125 C-96.41935573 23.72000743 -97.26315609 26.26319039 -97 31 C-101.69568889 26.98732041 -106.11543382 22.96060307 -110.1640625 18.28515625 C-112.77576434 16.45696496 -114.89524283 16.78692843 -118 17 C-118.39242285 31.13023501 -118.39242285 31.13023501 -116 45 C-112.79334585 46.03178839 -112.79334585 46.03178839 -109 46 C-107.34562506 44.71666074 -107.34562506 44.71666074 -105.9375 43 C-104.46484375 41.32421875 -104.46484375 41.32421875 -103 40 C-99.75387575 39.79711723 -98.0151618 40.18115448 -95.46484375 42.23828125 C-94.96082031 42.69589844 -94.45679688 43.15351562 -93.9375 43.625 C-91.28021398 46.25266823 -91.28021398 46.25266823 -88.3125 46.125 C-85.16140337 44.59203407 -84.3930985 43.20412656 -83 40 C-82.28076792 36.30476048 -82.28076792 36.30476048 -82 33 C-83.32 32.67 -84.64 32.34 -86 32 C-85.505 30.989375 -85.01 29.97875 -84.5 28.9375 C-82.45368443 24.17885105 -82.3571652 19.92850441 -84 15 C-87.85287428 14.59964022 -87.85287428 14.59964022 -89.8515625 16.390625 Z M32 28 C27.72087646 34.26542157 27.61968023 41.863722 27.5625 49.1875 C27.5524292 50.03046631 27.5423584 50.87343262 27.53198242 51.74194336 C27.62924066 58.77281705 28.81134485 64.49105385 33.5625 69.9375 C36.24898684 72.21068117 37.28006099 72.91818875 40.75 73.3125 C44.98476469 72.90531109 46.79105868 71.79038376 50 69 C54.52033628 62.76772305 54.58057747 56.45849008 54.4375 49 C54.44458984 47.9584375 54.45167969 46.916875 54.45898438 45.84375 C54.3978943 38.40015942 53.24023981 33.09847341 49.6484375 26.52734375 C47.32114068 24.37100949 45.75439452 24.49819737 42.625 24.5625 C41.22121094 24.56443359 41.22121094 24.56443359 39.7890625 24.56640625 C36.49657692 25.07826325 34.64452427 25.98169187 32 28 Z M84 34 C85 37 85 37 85 37 Z " fill="#74A534" transform="translate(286,65)"/>
<path d="M0 0 C7.65145094 6.58779633 13.03093143 17.05916582 14.03149414 27.06298828 C14.30941522 31.86872567 14.29548869 36.65785587 14.18286133 41.46899414 C14.11701445 44.44532178 14.12130868 47.41565756 14.13476562 50.39257812 C14.07327441 62.899526 13.02034148 74.95010126 4.94140625 85.1953125 C-4.75665692 94.40731522 -15.47424189 97.34036481 -28.4453125 97.3125 C-30.18421753 97.30887451 -30.18421753 97.30887451 -31.95825195 97.30517578 C-40.61548269 97.11823678 -46.69819896 96.14386728 -53.6953125 90.75 C-54.36949219 90.29367188 -55.04367187 89.83734375 -55.73828125 89.3671875 C-65.49141516 82.08872936 -69.57834176 69.2570984 -71.6953125 57.75 C-71.92605469 58.64460938 -72.15679688 59.53921875 -72.39453125 60.4609375 C-75.91245294 73.50366692 -79.70106163 83.96022708 -91.9609375 91.0625 C-99.81334894 94.79651383 -107.89499608 96.0631362 -116.52734375 95.98046875 C-117.32637619 95.98001053 -118.12540863 95.97955231 -118.94865417 95.9790802 C-120.62000026 95.97608494 -122.29134424 95.96828174 -123.96264648 95.95581055 C-126.51881785 95.93742082 -129.07462837 95.93530224 -131.63085938 95.93554688 C-133.26302396 95.93063527 -134.89518611 95.92480851 -136.52734375 95.91796875 C-137.66802055 95.91629951 -137.66802055 95.91629951 -138.83174133 95.91459656 C-142.28754298 95.88360556 -145.37021491 95.67314247 -148.6953125 94.75 C-148.87351351 88.20337854 -148.99568157 81.65738723 -149.07983398 75.10888672 C-149.11493083 72.88371408 -149.16262193 70.65870165 -149.22338867 68.43408203 C-149.30878107 65.22648525 -149.3481092 62.02103015 -149.37890625 58.8125 C-149.43309975 57.33233398 -149.43309975 57.33233398 -149.48838806 55.82226562 C-149.49210004 49.2201814 -148.03564392 45.9269939 -143.39784241 41.20874023 C-141.6953125 39.75 -141.6953125 39.75 -139.6953125 38.75 C-144.6453125 38.75 -149.5953125 38.75 -154.6953125 38.75 C-154.6953125 35.78 -154.6953125 32.81 -154.6953125 29.75 C-152.0553125 29.42 -149.4153125 29.09 -146.6953125 28.75 C-146.3653125 27.43 -146.0353125 26.11 -145.6953125 24.75 C-144.0453125 24.75 -142.3953125 24.75 -140.6953125 24.75 C-140.6953125 23.1 -140.6953125 21.45 -140.6953125 19.75 C-141.67113281 19.9665625 -142.64695312 20.183125 -143.65234375 20.40625 C-145.56080078 20.82390625 -145.56080078 20.82390625 -147.5078125 21.25 C-148.77238281 21.5284375 -150.03695312 21.806875 -151.33984375 22.09375 C-154.6953125 22.75 -154.6953125 22.75 -157.6953125 22.75 C-157.2003125 27.7 -157.2003125 27.7 -156.6953125 32.75 C-161.3153125 32.75 -165.9353125 32.75 -170.6953125 32.75 C-170.6953125 34.07 -170.6953125 35.39 -170.6953125 36.75 C-169.4371875 36.976875 -168.1790625 37.20375 -166.8828125 37.4375 C-161.10652104 38.69761454 -155.98198408 41.16101317 -150.6953125 43.75 C-150.82808594 44.34167969 -150.96085937 44.93335938 -151.09765625 45.54296875 C-151.27425781 46.33316406 -151.45085937 47.12335938 -151.6328125 47.9375 C-151.80683594 48.71480469 -151.98085938 49.49210937 -152.16015625 50.29296875 C-152.33675781 51.10378906 -152.51335937 51.91460937 -152.6953125 52.75 C-152.87707031 53.52601562 -153.05882812 54.30203125 -153.24609375 55.1015625 C-155.10968682 66.08865905 -153.40442714 77.07504624 -151.3515625 87.88671875 C-150.6953125 91.75 -150.6953125 91.75 -150.6953125 96.75 C-163.8953125 96.75 -177.0953125 96.75 -190.6953125 96.75 C-189.6953125 86.75 -189.6953125 86.75 -187.2578125 84.375 C-174.92608173 78.75 -174.92608173 78.75 -171.6953125 78.75 C-171.6953125 78.09 -171.6953125 77.43 -171.6953125 76.75 C-172.43652344 76.9665625 -173.17773438 77.183125 -173.94140625 77.40625 C-188.08576738 81.14576286 -200.9800024 81.09300776 -214.6953125 75.75 C-214.6953125 76.74 -214.6953125 77.73 -214.6953125 78.75 C-213.99664062 78.87117188 -213.29796875 78.99234375 -212.578125 79.1171875 C-207.04515006 80.33174297 -200.02195456 81.99575886 -196.25 86.4609375 C-194.65918102 89.99780688 -194.6953125 92.85077432 -194.6953125 96.75 C-207.2353125 96.75 -219.7753125 96.75 -232.6953125 96.75 C-231.54603615 77.21230198 -231.54603615 77.21230198 -230.09375 69.9140625 C-229.93650955 69.07775299 -229.7792691 68.24144348 -229.61726379 67.37979126 C-229.11226645 64.7093622 -228.59195541 62.04222259 -228.0703125 59.375 C-227.71065165 57.49850504 -227.35169432 55.62187512 -226.9934082 53.74511719 C-226.08395537 48.99816137 -225.16019772 44.25410754 -224.23284912 39.51062012 C-223.54519384 35.97903748 -222.86938917 32.44523925 -222.19372559 28.91134644 C-221.57690961 25.69476039 -220.95213021 22.4797687 -220.32427979 19.26531982 C-220.03300044 17.77066577 -219.74385084 16.27559489 -219.45697021 14.78009033 C-219.05859539 12.71113413 -218.64991642 10.64447821 -218.23828125 8.578125 C-218.01164795 7.4221582 -217.78501465 6.26619141 -217.55151367 5.07519531 C-216.59240152 1.3503286 -215.38572908 -1.79537775 -213.6953125 -5.25 C-211.6328125 -6.1875 -211.6328125 -6.1875 -208.6953125 -6.25 C-207.9940625 -6.27449219 -207.2928125 -6.29898438 -206.5703125 -6.32421875 C-199.91010128 -6.46297315 -193.31967656 -5.88739585 -186.6953125 -5.25 C-187.0253125 -3.6 -187.3553125 -1.95 -187.6953125 -0.25 C-182.7453125 -0.58 -177.7953125 -0.91 -172.6953125 -1.25 C-172.3653125 -2.57 -172.0353125 -3.89 -171.6953125 -5.25 C-170.0453125 -5.25 -168.3953125 -5.25 -166.6953125 -5.25 C-166.6953125 -3.93 -166.6953125 -2.61 -166.6953125 -1.25 C-165.7465625 -1.146875 -164.7978125 -1.04375 -163.8203125 -0.9375 C-160.6953125 -0.25 -160.6953125 -0.25 -158.6953125 2.75 C-152.13605307 2.36020794 -146.75004623 1.32886807 -140.6953125 -1.25 C-140.6953125 -2.57 -140.6953125 -3.89 -140.6953125 -5.25 C-135.11574857 -6.99039844 -129.11436947 -6.47467579 -123.32592773 -6.49023438 C-121.16414724 -6.49986047 -119.0033513 -6.5308687 -116.84179688 -6.5625 C-104.57566503 -6.65688681 -92.58251455 -5.11312342 -82.98046875 3.2421875 C-76.13659129 10.52142612 -73.10519554 20.04916296 -71.6953125 29.75 C-71.54835938 29.08355469 -71.40140625 28.41710937 -71.25 27.73046875 C-68.14155424 14.95725772 -62.26947639 4.90233865 -51.46875 -2.84765625 C-36.18204818 -12.11150559 -14.18899602 -10.46193255 0 0 Z M-179.6953125 13.75 C-176.1174461 17.68681093 -171.67396266 19.98290915 -166.6953125 21.75 C-163.74059356 21.86856818 -161.60270538 21.44992792 -158.6953125 20.75 C-158.6953125 18.11 -158.6953125 15.47 -158.6953125 12.75 C-165.49132223 9.12546148 -173.28327098 9.70028957 -179.6953125 13.75 Z M-118.6953125 18.75 C-118.6953125 34.92 -118.6953125 51.09 -118.6953125 67.75 C-111.313446 67.0880251 -111.313446 67.0880251 -105.6953125 63.75 C-99.91620348 55.08133647 -100.77190177 41.69843715 -102.08984375 31.78125 C-103.42023193 26.08203868 -105.74947816 23.11804797 -110.46484375 19.7109375 C-113.20893039 18.35433436 -113.20893039 18.35433436 -118.6953125 18.75 Z M-192.6953125 22.75 C-194.0153125 33.31 -195.3353125 43.87 -196.6953125 54.75 C-193.3953125 54.75 -190.0953125 54.75 -186.6953125 54.75 C-188.0153125 44.19 -189.3353125 33.63 -190.6953125 22.75 C-191.3553125 22.75 -192.0153125 22.75 -192.6953125 22.75 Z M-29.5703125 28.0625 C-30.85035156 28.18044922 -32.13039063 28.29839844 -33.44921875 28.41992188 C-35.29966797 28.60844727 -35.29966797 28.60844727 -37.1875 28.80078125 C-38.31526855 28.91075439 -39.44303711 29.02072754 -40.60498047 29.1340332 C-45.11003324 30.03198297 -48.8075896 32.14034637 -51.6953125 35.75 C-52.53893633 38.05695978 -52.82985792 39.30878246 -52.10620117 41.68188477 C-51.61470581 42.6765979 -51.61470581 42.6765979 -51.11328125 43.69140625 C-50.75878906 44.43535645 -50.40429688 45.17930664 -50.0390625 45.94580078 C-49.6575 46.72681152 -49.2759375 47.50782227 -48.8828125 48.3125 C-45.72192873 55.04567123 -43.35501745 61.26234877 -42.6953125 68.75 C-42.0353125 68.75 -41.3753125 68.75 -40.6953125 68.75 C-40.0353125 62.48 -39.3753125 56.21 -38.6953125 49.75 C-37.3753125 49.42 -36.0553125 49.09 -34.6953125 48.75 C-34.6953125 54.03 -34.6953125 59.31 -34.6953125 64.75 C-34.0353125 64.75 -33.3753125 64.75 -32.6953125 64.75 C-32.6953125 60.13 -32.6953125 55.51 -32.6953125 50.75 C-30.3853125 50.75 -28.0753125 50.75 -25.6953125 50.75 C-25.6953125 51.74 -25.6953125 52.73 -25.6953125 53.75 C-25.0353125 53.75 -24.3753125 53.75 -23.6953125 53.75 C-22.85712092 52.12750059 -22.0249009 50.50191503 -21.1953125 48.875 C-20.49921875 47.51761719 -20.49921875 47.51761719 -19.7890625 46.1328125 C-18.55625661 43.88403141 -18.55625661 43.88403141 -18.6953125 41.75 C-10.2803125 41.255 -10.2803125 41.255 -1.6953125 40.75 C-3.56122163 35.1522726 -4.00879265 33.90987416 -8.1328125 30.375 C-8.91527344 29.68664062 -9.69773437 28.99828125 -10.50390625 28.2890625 C-15.33263227 24.89776473 -23.9487289 27.49696531 -29.5703125 28.0625 Z " fill="#74A534" transform="translate(662.6953125,69.25)"/>
<path d="M0 0 C10.93150454 9.51945243 15.46874061 18.63977026 17.19140625 32.90625 C17.46926974 37.30696242 17.51683441 41.68524642 17.50390625 46.09375 C17.52001953 47.20427734 17.53613281 48.31480469 17.55273438 49.45898438 C17.55673092 56.21714498 16.76399314 61.66488909 14.19140625 67.90625 C13.82660156 68.93492187 13.46179688 69.96359375 13.0859375 71.0234375 C9.13757411 81.08677525 3.74376986 90.05495427 -5.5090332 95.99853516 C-10.52354302 97.97793292 -16.37246953 97.27800776 -21.71508789 97.27685547 C-23.97164868 97.2812029 -26.2262102 97.31746628 -28.48242188 97.35546875 C-36.30086317 97.41695024 -42.98464284 97.15270569 -49.80859375 92.90625 C-50.60652344 92.44863281 -51.40445313 91.99101562 -52.2265625 91.51953125 C-61.51002998 84.69526045 -66.0383567 75.12311567 -67.80859375 63.90625 C-67.87633519 61.29143042 -67.90359633 58.70645744 -67.87109375 56.09375 C-67.86658203 55.40087891 -67.86207031 54.70800781 -67.85742188 53.99414062 C-67.84572531 52.29813932 -67.82779299 50.60218297 -67.80859375 48.90625 C-63.18859375 48.90625 -58.56859375 48.90625 -53.80859375 48.90625 C-53.47859375 46.26625 -53.14859375 43.62625 -52.80859375 40.90625 C-54.18144531 40.66841797 -54.18144531 40.66841797 -55.58203125 40.42578125 C-56.77054688 40.19246094 -57.9590625 39.95914063 -59.18359375 39.71875 C-60.95863281 39.38810547 -60.95863281 39.38810547 -62.76953125 39.05078125 C-65.80859375 37.90625 -65.80859375 37.90625 -67.23046875 35.62109375 C-69.26299957 26.0764389 -65.69078207 17.87554021 -60.99609375 9.78125 C-54.54229841 1.29911899 -47.62294371 -3.9620599 -36.96875 -5.7734375 C-24.34444138 -7.05303368 -10.64863242 -7.93834072 0 0 Z M-23.80859375 6.90625 C-23.39609375 7.56625 -22.98359375 8.22625 -22.55859375 8.90625 C-20.80859375 11.90625 -20.80859375 11.90625 -19.9296875 13.94921875 C-17.90941368 18.71485024 -17.90941368 18.71485024 -13.55859375 21.40625 C-12.65109375 21.57125 -11.74359375 21.73625 -10.80859375 21.90625 C-12.41311306 16.2904324 -15.0067953 10.50759884 -19.80859375 6.90625 C-21.12859375 6.90625 -22.44859375 6.90625 -23.80859375 6.90625 Z M-35.80859375 24.90625 C-40.55728741 34.79936179 -41.92222613 47.41501311 -38.92578125 58.03515625 C-36.54744584 63.31947103 -33.31795819 67.70723329 -27.80859375 69.90625 C-24.23642679 70.47979142 -24.23642679 70.47979142 -20.80859375 68.90625 C-15.01745609 63.92563668 -12.12619105 58.84940606 -11.5078125 51.171875 C-11.48845127 49.83346766 -11.48504631 48.49475178 -11.49609375 47.15625 C-11.5010083 46.45177734 -11.50592285 45.74730469 -11.51098633 45.02148438 C-11.64145099 39.18201984 -12.48889778 34.24915629 -14.80859375 28.90625 C-15.24945313 27.72675781 -15.24945313 27.72675781 -15.69921875 26.5234375 C-16.84463892 24.07018683 -17.69711364 22.61203088 -19.80859375 20.90625 C-26.21766702 19.48396251 -31.61727862 19.43811039 -35.80859375 24.90625 Z " fill="#74A534" transform="translate(133.80859375,69.09375)"/>
<path d="M0 0 C-0.15847412 0.68860107 -0.31694824 1.37720215 -0.48022461 2.08666992 C-1.05211717 5.29211563 -1.21238625 8.35894123 -1.31640625 11.61328125 C-1.37924805 13.4840332 -1.37924805 13.4840332 -1.44335938 15.39257812 C-1.48267578 16.68615234 -1.52199219 17.97972656 -1.5625 19.3125 C-1.60568359 20.62541016 -1.64886719 21.93832031 -1.69335938 23.29101562 C-1.79927227 26.52724288 -1.90134885 29.76354458 -2 33 C-3.0621875 33.03738281 -4.124375 33.07476562 -5.21875 33.11328125 C-14.08197063 33.30555598 -14.08197063 33.30555598 -22.5625 35.5625 C-29.21727918 38.34540766 -35.27351497 36.70831366 -42 35 C-41.73445313 35.556875 -41.46890625 36.11375 -41.1953125 36.6875 C-38.1609526 43.24348927 -35.53895485 49.62327757 -36 57 C-37.32 57 -38.64 57 -40 57 C-40 60.3 -40 63.6 -40 67 C-39.18015625 66.65066406 -38.3603125 66.30132812 -37.515625 65.94140625 C-36.43796875 65.48636719 -35.3603125 65.03132813 -34.25 64.5625 C-33.18265625 64.11003906 -32.1153125 63.65757812 -31.015625 63.19140625 C-26.74365755 61.50364709 -22.93754221 60.83012305 -18.359375 60.46484375 C-17.28945313 60.37783203 -16.21953125 60.29082031 -15.1171875 60.20117188 C-14.00601563 60.11416016 -12.89484375 60.02714844 -11.75 59.9375 C-10.62335937 59.84662109 -9.49671875 59.75574219 -8.3359375 59.66210938 C-5.55751649 59.43842294 -2.77888499 59.21783364 0 59 C-0.54644275 65.32491784 -1.66968077 71.01290129 -3.5625 77.0625 C-3.91344727 78.21782227 -3.91344727 78.21782227 -4.27148438 79.39648438 C-4.84061372 81.2664808 -5.41928494 83.13356895 -6 85 C-4.02 85 -2.04 85 0 85 C0 89.29 0 93.58 0 98 C-7.44316045 100.96151146 -13.96407793 101.51836136 -21.9375 101.5 C-23.61102539 101.54253906 -23.61102539 101.54253906 -25.31835938 101.5859375 C-35.74420035 101.61036829 -43.52682366 98.15703902 -51.17578125 91.09765625 C-56.55787283 84.90882717 -60.05861927 77.65186362 -60.19287109 69.43774414 C-60.20893402 68.53903091 -60.22499695 67.64031769 -60.24154663 66.71437073 C-60.28648363 62.58685373 -60.32711247 58.45949257 -60.35009766 54.33178711 C-60.36657732 52.16826562 -60.39376014 50.00479675 -60.43212891 47.84155273 C-60.69594431 32.86716106 -60.61211636 20.92758326 -51.0625 8.625 C-37.84904178 -5.01111092 -16.91526819 -8.18362867 0 0 Z " fill="#74A534" transform="translate(60,65)"/>
<path d="M0 0 C5.61 0 11.22 0 17 0 C20.60964568 3.60964568 22.698339 5.76009816 25 10 C25.66 6.7 26.32 3.4 27 0 C32.61 0 38.22 0 44 0 C44 14.52 44 29.04 44 44 C38.39 44 32.78 44 27 44 C23.39035432 40.39035432 21.301661 38.23990184 19 34 C18.86722656 34.63808594 18.73445313 35.27617188 18.59765625 35.93359375 C18.42105469 36.75988281 18.24445313 37.58617187 18.0625 38.4375 C17.88847656 39.26121094 17.71445312 40.08492187 17.53515625 40.93359375 C17 43 17 43 16 44 C10.72 44 5.44 44 0 44 C0 29.48 0 14.96 0 0 Z " fill="#056839" transform="translate(348,10)"/>
<path d="M0 0 C16 0 16 0 21 4 C22.36328125 6.140625 22.36328125 6.140625 23.3125 8.25 C23.63863281 8.95640625 23.96476562 9.6628125 24.30078125 10.390625 C24.53152344 10.92171875 24.76226562 11.4528125 25 12 C25.13277344 11.21753906 25.26554687 10.43507813 25.40234375 9.62890625 C25.57894531 8.61699219 25.75554687 7.60507812 25.9375 6.5625 C26.19853516 5.04849609 26.19853516 5.04849609 26.46484375 3.50390625 C27 1 27 1 28 0 C33.28 0 38.56 0 44 0 C44 14.52 44 29.04 44 44 C38.39 44 32.78 44 27 44 C22.96080655 39.96080655 20.15831887 36.60212178 17 32 C16.80083984 33.17369141 16.80083984 33.17369141 16.59765625 34.37109375 C16.42105469 35.38300781 16.24445313 36.39492188 16.0625 37.4375 C15.88847656 38.44683594 15.71445313 39.45617188 15.53515625 40.49609375 C15 43 15 43 14 44 C9.38 44 4.76 44 0 44 C0 29.48 0 14.96 0 0 Z " fill="#056839" transform="translate(92,10)"/>
<path d="M0 0 C4.95 0 9.9 0 15 0 C13.66666667 2.66666667 12.33333333 5.33333333 11 8 C11.77923828 8.36351562 11.77923828 8.36351562 12.57421875 8.734375 C19.53203859 12.07824405 24.30276694 14.99617482 27.26953125 22.3828125 C29.4617144 30.23715853 28.43750237 38.03102094 25.40625 45.51171875 C22.91982374 49.91131189 19.09398351 54.06776052 14.13232422 55.56274414 C10.4815871 56.31136678 6.84060479 56.26748056 3.125 56.3125 C2.33480469 56.34150391 1.54460937 56.37050781 0.73046875 56.40039062 C-5.83151518 56.4713605 -9.33699406 54.60305083 -14.08203125 49.96484375 C-14.93861328 48.96130859 -14.93861328 48.96130859 -15.8125 47.9375 C-16.68841797 46.93009766 -16.68841797 46.93009766 -17.58203125 45.90234375 C-21.66129381 40.42961409 -20.5936492 31.55278726 -20 25 C-18.83513524 19.65493485 -17.2465246 16.13572241 -13.1875 12.4375 C-9.73357333 10.8798468 -6.76515869 10.3012127 -3 10 C-2.01 6.7 -1.02 3.4 0 0 Z M-1 22 C-3.39831346 26.89655665 -4.69598854 30.43209169 -4 36 C-2.8574693 38.5274164 -1.52532374 40.66434803 0 43 C3.96435532 42.44683414 7.3162378 41.54379132 11 40 C11.10823773 37.75106046 11.18569645 35.50062425 11.25 33.25 C11.29640625 31.99703125 11.3428125 30.7440625 11.390625 29.453125 C11.28157358 25.97355196 11.28157358 25.97355196 9.25 23.5625 C5.69263388 21.09210686 3.23835557 21.71744296 -1 22 Z " fill="#056839" transform="translate(317,0)"/>
<path d="M0 0 C0.90814453 -0.020625 1.81628906 -0.04125 2.75195312 -0.0625 C10.17286027 -0.10499625 16.38982436 1.13813631 22.75 5.0625 C27.55500578 10.15871825 27.14925051 16.65386036 27.125 23.25 C27.14111328 24.1265625 27.15722656 25.003125 27.17382812 25.90625 C27.17844464 32.03698552 26.25748587 36.21286911 22.3125 41.11328125 C21.8175 41.59152344 21.3225 42.06976563 20.8125 42.5625 C20.3175 43.05363281 19.8225 43.54476562 19.3125 44.05078125 C16.11934687 46.60364065 12.84127875 46.3786367 8.9375 46.3828125 C7.78765625 46.38410156 6.6378125 46.38539062 5.453125 46.38671875 C3.65101563 46.38091797 3.65101563 46.38091797 1.8125 46.375 C0.61109375 46.37886719 -0.5903125 46.38273437 -1.828125 46.38671875 C-2.97796875 46.38542969 -4.1278125 46.38414063 -5.3125 46.3828125 C-6.89417969 46.38112061 -6.89417969 46.38112061 -8.5078125 46.37939453 C-11.1875 46.25 -11.1875 46.25 -14.1875 45.25 C-14.1875 30.73 -14.1875 16.21 -14.1875 1.25 C-9.36566622 0.04454155 -4.94695386 0.02750218 0 0 Z M1.8125 13.25 C1.8125 19.85 1.8125 26.45 1.8125 33.25 C4.4525 33.25 7.0925 33.25 9.8125 33.25 C12.03109848 27.9808286 12.58521763 22.89083872 11.8125 17.25 C10.39205419 14.49390705 10.39205419 14.49390705 7.8125 13.25 C5.8325 13.25 3.8525 13.25 1.8125 13.25 Z " fill="#056839" transform="translate(156.1875,8.75)"/>
<path d="M0 0 C4.62 0 9.24 0 14 0 C17.88062014 7.76124027 16.12811676 21.55852871 16 30 C19.3 30.33 22.6 30.66 26 31 C26 20.77 26 10.54 26 0 C31.28 0 36.56 0 42 0 C43.77379963 5.32139889 43.26994189 10.9930626 43.3125 16.5625 C43.34150391 17.80064453 43.37050781 19.03878906 43.40039062 20.31445312 C43.45259687 27.90042154 42.87797722 34.34008751 39 41 C33.90673271 45.85073076 27.38183323 46.81100719 20.5546875 47.10546875 C13.54413714 46.80115226 6.5086016 44.37550317 1 40 C-0.97501745 35.18118909 -1.24610495 30.79289144 -1.1875 25.625 C-1.18105469 24.94888672 -1.17460938 24.27277344 -1.16796875 23.57617188 C-1.05253575 15.70508408 -0.54414276 7.85120274 0 0 Z " fill="#056839" transform="translate(44,10)"/>
<path d="M0 0 C0.78052734 -0.01160156 1.56105469 -0.02320313 2.36523438 -0.03515625 C7.01277468 -0.01150465 10.02366288 0.41630135 13.8125 3.375 C17.65135943 7.65258622 19.8125 10.57532878 19.8125 16.375 C18.06433142 16.88136607 16.31387737 17.37984619 14.5625 17.875 C13.58796875 18.1534375 12.6134375 18.431875 11.609375 18.71875 C8.8125 19.375 8.8125 19.375 4.8125 19.375 C4.4825 18.715 4.1525 18.055 3.8125 17.375 C0.5125 17.375 -2.7875 17.375 -6.1875 17.375 C-5.8575 22.325 -5.5275 27.275 -5.1875 32.375 C-2.2175 32.045 0.7525 31.715 3.8125 31.375 C4.1425 30.055 4.4725 28.735 4.8125 27.375 C9.96421623 27.28461901 14.73163204 27.52818867 19.8125 28.375 C19.91537307 35.54672293 18.59242908 39.60357971 13.69921875 44.87890625 C9.67064989 48.07340288 4.94937299 47.58843953 0 47.625 C-0.68642578 47.645625 -1.37285156 47.66625 -2.08007812 47.6875 C-8.45110717 47.73571971 -13.06684142 46.25467465 -17.9375 41.9375 C-24.49941825 34.46420421 -24.81741534 27.98313751 -24.37988281 18.35742188 C-23.81180292 12.50360374 -21.55998908 7.3011981 -17.1875 3.375 C-11.2973363 0.66234083 -6.43897392 -0.09715132 0 0 Z " fill="#056839" transform="translate(252.1875,8.625)"/>
<path d="M0 0 C6.6 0 13.2 0 20 0 C22.14409719 5.45979035 24.28287975 10.92108458 26.40869141 16.38793945 C27.13320219 18.24654464 27.8607178 20.10398144 28.59130859 21.96020508 C29.64174431 24.63059847 30.68125425 27.3050258 31.71875 29.98046875 C32.04685669 30.80773972 32.37496338 31.63501068 32.7130127 32.48735046 C33.01332397 33.26778214 33.31363525 34.04821381 33.62304688 34.85229492 C33.88952026 35.53402267 34.15599365 36.21575043 34.43054199 36.9181366 C35 39 35 39 35 44 C29.39 44 23.78 44 18 44 C17.67 42.02 17.34 40.04 17 38 C12.38 38 7.76 38 3 38 C2.67 39.98 2.34 41.96 2 44 C-2.95 44 -7.9 44 -13 44 C-12.46236418 37.63059685 -11.31833828 31.99508072 -9.3125 25.9375 C-9.05065918 25.12692139 -8.78881836 24.31634277 -8.51904297 23.48120117 C-5.92537905 15.55731846 -2.99747041 7.77914939 0 0 Z M9 18 C8.67 20.31 8.34 22.62 8 25 C9.32 24.67 10.64 24.34 12 24 C11.34 22.02 10.68 20.04 10 18 C9.67 18 9.34 18 9 18 Z " fill="#056839" transform="translate(195,10)"/>
<path d="M0 0 C11.22 0 22.44 0 34 0 C34 3.96 34 7.92 34 12 C27.4 12 20.8 12 14 12 C14 13.32 14 14.64 14 16 C19.94 16 25.88 16 32 16 C32 19.96 32 23.92 32 28 C26.06 28 20.12 28 14 28 C14 33.28 14 38.56 14 44 C9.38 44 4.76 44 0 44 C0 29.48 0 14.96 0 0 Z " fill="#056839" transform="translate(4,10)"/>
<path d="M0 0 C5.28 0 10.56 0 16 0 C16 14.52 16 29.04 16 44 C10.72 44 5.44 44 0 44 C0 29.48 0 14.96 0 0 Z " fill="#056839" transform="translate(276,10)"/>
<path d="M0 0 C3.48753077 2.09251846 3.94518659 3.84600043 5.3125 7.6875 C6.29748368 12.23555507 5.77874034 16.45384015 5 21 C1.7865962 21.94734782 -1.15472447 22.16452421 -4.5 22.1875 C-5.4384375 22.20167969 -6.376875 22.21585938 -7.34375 22.23046875 C-10.05994337 21.99479903 -11.67915046 21.38484654 -14 20 C-14.33 20.33 -14.66 20.66 -15 21 C-18.33618231 21.14257189 -21.65975606 21.04228157 -25 21 C-25 15.06 -25 9.12 -25 3 C-23.35 3 -21.7 3 -20 3 C-19.34 5.31 -18.68 7.62 -18 10 C-17.67 10 -17.34 10 -17 10 C-16.773125 8.906875 -16.54625 7.81375 -16.3125 6.6875 C-15 3 -15 3 -13 1.0625 C-8.62123151 -0.48831384 -4.59067823 -0.67578512 0 0 Z " fill="#74A534" transform="translate(177,143)"/>
</svg>
